<?xml version="1.0" encoding="utf-8"?>
<!-- Generator: Adobe Illustrator 18.0.0, SVG Export Plug-In . SVG Version: 6.00 Build 0)  -->
<!DOCTYPE svg PUBLIC "-//W3C//DTD SVG 1.1//EN" "http://www.w3.org/Graphics/SVG/1.1/DTD/svg11.dtd">
<svg version="1.1" id="Layer_1" xmlns="http://www.w3.org/2000/svg" xmlns:xlink="http://www.w3.org/1999/xlink" x="0px" y="0px"
	 viewBox="0 0 365 560" enable-background="new 0 0 365 560" xml:space="preserve">
<g>
	<path fill="%COLOR%" d="M182.9,551.7c0,0.1,0.2,0.3,0.2,0.3S358.3,283,358.3,194.6c0-130.1-88.8-186.7-175.4-186.9
		C96.3,7.9,7.5,64.5,7.5,194.6c0,88.4,175.3,357.4,175.3,357.4S182.9,551.7,182.9,551.7z M122.2,187.2c0-33.6,27.2-60.8,60.8-60.8
		c33.6,0,60.8,27.2,60.8,60.8S216.5,248,182.9,248C149.4,248,122.2,220.8,122.2,187.2z"/>
		<path
   d="m 120.77688,186.98525 c 0,-33.99323 27.83666,-61.51156 62.22313,-61.51156 34.38646,0 62.22312,27.51833 62.22312,61.51156 0,33.99324 -27.939,61.51157 -62.32546,61.51157 -34.28413,0 -62.12079,-27.51833 -62.12079,-61.51157 z"
   style="display:inline;fill:#ffffff;fill-opacity:1;stroke-width:1.01754"
   id="path1-8" />
</g>
</svg>
